<svg width="106" height="106" viewBox="0 0 106 106" fill="none" xmlns="http://www.w3.org/2000/svg">
<g style="mix-blend-mode:multiply">
<circle cx="53" cy="53" r="53" fill="url(#paint0_linear_142_871)" fill-opacity="0.7"/>
</g>
<g clip-path="url(#clip0_142_871)">
<path d="M35.7883 54.6097C31.1113 51.2799 28.6323 46.8733 28.753 41.1719C28.8352 37.2465 30.2571 33.8144 33.0172 31.0107C39.1805 24.7491 48.7031 24.5324 55.0583 30.5541C58.5986 33.9085 60.1439 38.1365 59.7298 42.9751C59.3157 47.8152 56.9478 51.6043 53.0688 54.3766C54.9281 55.2121 56.8202 55.9414 58.5959 56.8873C62.2719 58.8459 65.3625 61.4833 67.5412 65.0775C68.8644 67.2597 69.5431 69.6109 69.5198 72.1774C69.4841 76.0974 69.5102 80.0187 69.5102 83.9987H19.0398C19.0398 83.7397 19.0398 83.4971 19.0398 83.2531C19.0398 79.7625 19.1454 76.2664 19.011 72.7812C18.8656 69.033 20.2464 65.9253 22.6212 63.168C25.9476 59.3052 30.1433 56.7046 34.9053 54.9518C35.174 54.8523 35.44 54.7446 35.7883 54.6097ZM47.6007 55.2503C49.039 54.2935 50.4074 53.4416 51.7127 52.5025C56.0565 49.3785 58.0488 45.1491 57.3714 39.8471C56.1758 30.4901 45.4836 25.4661 37.3816 30.3933C29.0135 35.4814 28.8613 47.3776 37.0977 52.6892C38.4127 53.537 39.7331 54.3766 41.1453 55.2803C40.723 55.4221 40.409 55.5229 40.0978 55.6347C37.7243 56.4906 35.2878 57.2062 32.9939 58.238C29.1191 59.9813 25.7748 62.4715 23.3068 65.9867C22.0001 67.8471 21.2446 69.8767 21.3035 72.2087C21.379 75.1542 21.3214 78.1023 21.3214 81.0492C21.3214 81.2877 21.3214 81.5276 21.3214 81.7525H67.2245V80.9646C67.2245 78.041 67.1861 75.116 67.2368 72.1924C67.2766 69.8603 66.5951 67.7695 65.3172 65.8572C62.5379 61.6973 58.5931 59.0176 53.9751 57.2716C51.9376 56.5015 49.8178 55.9441 47.5993 55.2476L47.6007 55.2503Z" fill="white"/>
<path d="M68.2473 44.6802C74.3791 41.0805 77.5094 36.0333 76.045 29.0207C74.8877 23.4815 71.2624 19.8722 65.7066 18.6033C59.5104 17.1885 54.6017 19.4783 50.8338 24.5255C50.5541 24.3524 50.2497 24.1684 49.9494 23.979C49.645 23.7854 49.3447 23.5864 48.9786 23.3479C52.3023 18.5406 56.8421 15.9059 62.6489 16.0027C69.4937 16.1158 74.6135 19.3775 77.2955 25.6664C80.2174 32.5209 78.5226 38.6312 73.3288 43.9251C74.1144 44.2808 74.9261 44.6216 75.7132 45.01C79.8773 47.0654 83.4108 49.846 85.8774 53.83C87.3075 56.1389 88.0288 58.6427 88.0013 61.3742C87.9616 65.2724 87.9918 69.1719 87.9918 73.0715C87.9918 73.3141 87.9918 73.558 87.9918 73.8443H73.193V71.7071H85.669C85.7006 71.5013 85.7335 71.3922 85.7335 71.2846C85.7335 67.6344 85.776 63.9843 85.717 60.3356C85.6786 57.9681 84.6818 55.8963 83.3107 54.0154C80.2242 49.7819 75.9833 47.1717 71.0664 45.543C70.182 45.2499 69.2839 44.9964 68.25 44.6815L68.2473 44.6802Z" fill="white"/>
</g>
<defs>
<linearGradient id="paint0_linear_142_871" x1="53" y1="0" x2="53" y2="106" gradientUnits="userSpaceOnUse">
<stop stop-color="white"/>
<stop offset="1" stop-color="#39F0F6"/>
</linearGradient>
<clipPath id="clip0_142_871">
<rect width="69" height="68" fill="white" transform="translate(19 16)"/>
</clipPath>
</defs>
</svg>
