<svg width="106" height="106" viewBox="0 0 106 106" fill="none" xmlns="http://www.w3.org/2000/svg">
<g style="mix-blend-mode:multiply">
<circle cx="53" cy="53" r="53" fill="url(#paint0_linear_142_869)" fill-opacity="0.7"/>
</g>
<g clip-path="url(#clip0_142_869)">
<path d="M35.2421 85C34.3935 84.2204 34.4361 83.1305 34.3027 82.1428C33.6689 77.4342 34.3935 72.9338 36.5856 68.6836C37.4861 66.9382 37.7511 66.8451 39.4892 67.8218C42.5392 69.538 45.5763 71.2761 48.6152 73.0105C49.6529 73.6039 49.7511 74.0074 49.0877 75.0626C46.197 79.6671 42.1649 82.884 36.9821 84.6933C36.7227 84.7846 36.4707 84.8978 36.215 85H35.244H35.2421ZM36.0908 79.3147C36.1242 79.7365 36.1779 80.4631 36.239 81.1861C36.2557 81.3887 36.2983 81.5914 36.3298 81.7941C36.4744 82.7087 36.5003 82.7416 37.3508 82.3965C41.1903 80.8429 44.2959 78.3836 46.6881 75.0407C47.0124 74.5879 46.9327 74.3762 46.4491 74.1059C43.9975 72.7367 41.5571 71.3491 39.139 69.9269C38.5497 69.58 38.3218 69.726 38.0642 70.2792C36.7746 73.0543 36.1557 75.9682 36.0908 79.3147Z" fill="white"/>
<path d="M77.9998 26.9766C77.8831 34.1335 76.434 40.9891 73.2932 47.4631C72.7948 48.4909 72.5742 49.3545 73.1301 50.5047C74.4328 53.1958 75.0313 56.0896 75.237 59.0765C75.4482 62.1419 75.0536 65.1123 74.1623 68.0353C73.8232 69.1472 73.2524 69.3443 72.2351 68.7674C68.9535 66.9015 65.6681 65.0411 62.3976 63.157C61.9788 62.916 61.7157 62.947 61.3747 63.2702C60.8948 63.7266 60.3945 64.1867 59.8349 64.5372C58.2339 65.5395 57.2259 66.9983 56.3846 68.6177C55.8862 69.5744 55.2914 70.469 54.3352 71.0642C52.5285 72.1906 50.6681 72.2472 48.8207 71.2285C46.1394 69.7515 43.4952 68.2051 40.8269 66.7062C39.1684 65.7732 38.0418 64.4879 37.7898 62.5563C37.6527 61.4956 37.8991 60.5206 38.3791 59.5913C38.62 59.1258 38.8571 58.6456 39.1796 58.2348C40.4507 56.6227 40.6138 54.6838 40.9103 52.7777C41.1789 51.0579 41.1752 51.0743 39.6206 50.1998C36.7299 48.5749 33.8522 46.9336 30.9689 45.2978C30.8281 45.2174 30.691 45.1334 30.5613 45.0385C29.8757 44.5364 29.809 43.9869 30.3908 43.368C32.3364 41.2958 34.5452 39.5559 37.0801 38.2231C40.2802 36.5398 43.6675 35.4809 47.2975 35.2198C47.7941 35.1833 48.1388 34.9715 48.4242 34.5516C53.594 26.9529 60.3908 21.2183 68.8368 17.4226C70.8065 16.5372 72.8781 15.8653 74.922 15.1441C75.9282 14.7881 76.397 15.0766 76.6397 16.0899C77.3142 18.9088 77.7348 21.7642 77.846 24.6616C77.8757 25.4339 77.9461 26.2044 77.998 26.9748L77.9998 26.9766ZM75.7243 30.8837C75.7521 29.9909 75.7021 29.9599 74.8497 29.927C69.956 29.7298 66.1833 27.6211 63.6687 23.4548C63.3019 22.8469 63.0517 22.8469 62.518 23.2138C58.6527 25.8849 55.2209 29.0068 52.3062 32.6692C48.6447 37.2682 45.8689 42.3401 44.2234 47.9597C43.5156 50.3769 43.1153 52.8836 42.6113 55.3557C42.5668 55.5747 42.7169 55.9728 42.9004 56.0786C47.4291 58.6821 51.9763 61.2546 56.5143 63.8453C56.9479 64.0936 57.2592 64.0151 57.6335 63.7266C60.1555 61.7877 62.4699 59.6352 64.5397 57.2343C68.7978 52.2939 71.9072 46.7291 73.8361 40.5272C74.8219 37.3595 75.4279 34.1225 75.7206 30.8855L75.7243 30.8837ZM39.8003 61.7274C39.8707 63.1278 40.3266 64.0315 41.3049 64.6322C41.9313 65.0174 42.5835 65.3606 43.2246 65.7258C45.4038 66.9673 47.5773 68.2215 49.7639 69.4466C51.4353 70.3832 53.1271 69.9633 54.1536 68.3749C54.5502 67.7614 54.9078 67.1224 55.2802 66.4944C55.7138 65.7659 55.6935 65.6966 54.9634 65.2821C53.2012 64.2834 51.439 63.2866 49.6786 62.2861C47.279 60.9205 44.8738 59.5621 42.4909 58.1709C41.9405 57.8496 41.6422 57.9318 41.3605 58.4831C41.0177 59.1532 40.5749 59.7739 40.245 60.4476C40.0097 60.9278 39.8893 61.4627 39.8003 61.7293V61.7274ZM46.4878 37.4143C41.1233 38.0168 36.5872 40.2241 32.6477 43.9248C35.7089 45.6611 38.6589 47.3334 41.7441 49.0825C42.8615 44.9436 44.4847 41.1278 46.4878 37.4143ZM63.4242 61.4225C66.4668 63.1533 69.4223 64.833 72.4816 66.5747C73.7805 61.3039 73.4081 56.347 71.3049 51.2916C69.0628 55.0891 66.4575 58.3462 63.4242 61.4244V61.4225ZM75.8689 25.9999C75.8689 25.9999 75.8855 25.9999 75.8948 25.9999C75.8392 25.0688 75.8337 24.134 75.7151 23.2102C75.489 21.4283 75.1981 19.6555 74.9405 17.8791C74.8738 17.419 74.6385 17.3314 74.2123 17.4738C71.1604 18.4907 68.2364 19.7778 65.4624 21.3954C65.103 21.6054 65.0715 21.8299 65.2475 22.1823C66.9708 25.653 71.2216 28.0794 75.2074 27.8749C75.665 27.8512 75.8967 27.7051 75.8744 27.2304C75.8559 26.8215 75.8707 26.4107 75.8707 26.0017L75.8689 25.9999Z" fill="white"/>
<path d="M67.8974 39.8261C68.1549 43.1033 65.394 46.1011 61.7695 46.2965C58.6565 46.4626 55.3026 44.2754 55.1135 40.1986C54.9579 36.8228 57.4706 34.0678 60.7337 33.7574C64.7065 33.3795 67.5879 35.8844 67.8974 39.8261ZM61.5434 44.2645C63.9338 44.2571 65.8832 42.3438 65.8776 40.0105C65.8702 37.6371 63.8949 35.6781 61.5156 35.6836C59.0641 35.689 57.1518 37.6188 57.1685 40.0689C57.1852 42.4132 59.1234 44.2718 61.5434 44.2645Z" fill="white"/>
</g>
<defs>
<linearGradient id="paint0_linear_142_869" x1="53" y1="0" x2="53" y2="106" gradientUnits="userSpaceOnUse">
<stop stop-color="white"/>
<stop offset="1" stop-color="#39F0F6"/>
</linearGradient>
<clipPath id="clip0_142_869">
<rect width="48" height="70" fill="white" transform="translate(30 15)"/>
</clipPath>
</defs>
</svg>
