<svg width="106" height="106" viewBox="0 0 106 106" fill="none" xmlns="http://www.w3.org/2000/svg">
<g style="mix-blend-mode:multiply">
<circle cx="53" cy="53" r="53" fill="url(#paint0_linear_142_870)" fill-opacity="0.7"/>
</g>
<g clip-path="url(#clip0_142_870)">
<path d="M84 51.4283V63.4149C83.9928 63.4975 83.982 63.5801 83.9802 63.6609C83.973 64.4419 83.973 65.2211 83.9604 66.0022C83.9226 68.4207 83.865 70.8374 83.5014 73.2361C83.2818 74.6797 82.9416 76.0891 82.3223 77.4214C81.1883 79.8614 79.3486 81.56 76.8608 82.569C75.3847 83.1669 73.8348 83.4631 72.2598 83.6427C69.9592 83.9066 67.6461 83.982 65.333 83.9874C57.7546 84.0036 50.1779 84 42.5995 83.9964C40.2306 83.9964 37.8634 83.9425 35.5017 83.7235C33.824 83.5673 32.1661 83.3105 30.573 82.7396C27.6389 81.6892 25.5778 79.7286 24.4113 76.8414C23.8497 75.4517 23.5652 73.992 23.3798 72.5126C23.1278 70.5052 23.0432 68.4871 23.0324 66.4672C23.0054 61.7523 23 57.0374 23 52.3224C23 50.2918 22.9946 48.2611 23.1926 46.2358C23.3006 45.1208 23.4842 44.0202 23.8569 42.959C24.3159 41.6519 25.0557 40.5352 26.125 39.641C27.1366 38.7971 28.3193 38.3195 29.5866 38.0215C30.9637 37.6983 32.3695 37.5852 33.7772 37.5475C35.4027 37.5044 37.0282 37.5008 38.6519 37.4775C38.6969 37.4775 38.7419 37.4703 38.7851 37.4649C38.7329 37.4218 38.6825 37.4056 38.6303 37.3895C37.9066 37.1704 37.363 36.5205 37.3612 35.7951C37.3558 34.2079 37.3486 32.6189 37.399 31.0317C37.4476 29.5002 37.7932 28.0189 38.3225 26.5825C39.3305 23.848 40.9578 21.5426 43.2133 19.6879C45.6903 17.6518 48.5308 16.465 51.717 16.0988C52.0608 16.0628 52.4029 16.0341 52.7431 16C53.2201 16 53.6971 16 54.1742 16C54.2624 16.0108 54.3488 16.0287 54.437 16.0341C55.2686 16.0754 56.0949 16.1795 56.9067 16.3627C60.7751 17.2407 63.9415 19.2319 66.35 22.3793C68.3661 25.0115 69.4534 28.0045 69.601 31.3136C69.6658 32.7823 69.6298 34.2564 69.6226 35.7287C69.6172 36.5295 69.0934 37.1794 68.3229 37.4021C68.2797 37.4146 68.2365 37.4308 68.1933 37.4451C68.2509 37.4775 68.3031 37.4829 68.3553 37.4829C69.2986 37.4882 70.2419 37.4882 71.1833 37.4972C72.8358 37.5134 74.4883 37.5565 76.1282 37.7845C77.1146 37.9227 78.0831 38.1418 79.0011 38.5296C81.1541 39.4417 82.5239 41.063 83.226 43.2643C83.6706 44.6612 83.8236 46.1101 83.8884 47.5644C83.9424 48.7692 83.9496 49.9758 83.9802 51.1805C83.982 51.2631 83.9928 51.3439 84 51.4265V51.4283ZM53.4649 80.4521C53.4649 80.4521 53.4649 80.4378 53.4649 80.4288C56.5611 80.4288 59.6555 80.4414 62.7516 80.4252C65.7308 80.4108 68.71 80.4396 71.6783 80.1182C72.9042 79.9853 74.1157 79.7699 75.2803 79.3479C77.2316 78.6405 78.5799 77.3208 79.3036 75.3745C79.7536 74.1626 79.9696 72.8986 80.1064 71.6202C80.2756 70.0186 80.3584 68.4099 80.3674 66.7994C80.389 62.3951 80.4052 57.989 80.4016 53.5847C80.4016 51.6653 80.3674 49.7441 80.3152 47.8248C80.2828 46.6685 80.164 45.5176 79.8346 44.399C79.66 43.8101 79.3972 43.2643 78.9885 42.7957C78.3513 42.0631 77.5089 41.7076 76.5908 41.4921C75.3685 41.2049 74.1211 41.1384 72.8736 41.1061C71.3597 41.0666 69.8458 41.0505 68.3301 41.0487C58.588 41.0433 48.8459 41.0379 39.1055 41.0487C36.8482 41.0505 34.5891 41.0145 32.3353 41.2031C31.3723 41.2839 30.4164 41.4131 29.5074 41.7651C28.5911 42.1206 27.8945 42.7185 27.4589 43.609C27.07 44.4026 26.8918 45.2537 26.8162 46.1191C26.7136 47.2915 26.6182 48.4712 26.6092 49.6472C26.5786 53.7858 26.5786 57.9261 26.5822 62.0647C26.5858 65.2355 26.5516 68.4063 26.8738 71.5681C26.9998 72.798 27.2032 74.0118 27.6101 75.186C28.2941 77.1592 29.5956 78.5435 31.5595 79.2941C32.7494 79.7483 33.9932 79.9692 35.2515 80.1146C36.8392 80.2995 38.4377 80.3695 40.0344 80.3821C44.5112 80.418 48.9881 80.4288 53.4649 80.4503V80.4521ZM67.4787 37.4685C67.4787 37.4685 67.4841 37.4541 67.4859 37.4451C67.4679 37.4362 67.4517 37.4236 67.4319 37.42C66.566 37.2207 66.0242 36.4163 66.0494 35.5509C66.0782 34.567 66.0674 33.5813 66.0512 32.5974C66.0404 31.9294 66.026 31.2579 65.9522 30.5936C65.7506 28.755 65.1368 27.0529 64.1575 25.4873C63.0036 23.6433 61.4682 22.1944 59.5601 21.1369C57.6573 20.0829 55.6106 19.573 53.4397 19.5766C51.3318 19.5802 49.3481 20.0901 47.494 21.0991C45.3537 22.2644 43.6904 23.9109 42.5041 26.0313C41.4348 27.9453 40.9218 30.0083 40.9272 32.2006C40.9308 33.3569 40.9308 34.5131 40.9272 35.6694C40.9236 36.5079 40.4196 37.1668 39.6149 37.4038C39.5753 37.4146 39.5375 37.4308 39.4997 37.4451C39.4997 37.4541 39.5033 37.4613 39.5051 37.4703H67.4805L67.4787 37.4685Z" fill="white"/>
<path d="M53.5099 67.8946C49.6037 67.882 46.3437 64.7992 46.3221 60.7432C46.3005 56.8111 49.5191 53.5972 53.4811 53.5864C57.4359 53.5775 60.6491 56.7698 60.6617 60.7217C60.6743 64.6609 57.4684 67.873 53.5099 67.8928V67.8946Z" fill="white"/>
</g>
<defs>
<linearGradient id="paint0_linear_142_870" x1="53" y1="0" x2="53" y2="106" gradientUnits="userSpaceOnUse">
<stop stop-color="white"/>
<stop offset="1" stop-color="#39F0F6"/>
</linearGradient>
<clipPath id="clip0_142_870">
<rect width="61" height="68" fill="white" transform="translate(23 16)"/>
</clipPath>
</defs>
</svg>
