<svg width="106" height="106" viewBox="0 0 106 106" fill="none" xmlns="http://www.w3.org/2000/svg">
<g style="mix-blend-mode:multiply">
<circle cx="53" cy="53" r="53" fill="url(#paint0_linear_142_872)" fill-opacity="0.7"/>
</g>
<g clip-path="url(#clip0_142_872)">
<path d="M42.0357 63.9946C39.8165 61.7001 37.6217 59.386 35.378 57.1208C32.4842 54.1965 29.5367 51.3259 26.6429 48.4016C25.983 47.7377 25.3622 47.0005 24.8685 46.2096C23.7442 44.4082 23.8859 42.2943 25.1324 40.7223C26.2714 39.287 28.2755 38.7548 30.2895 39.5408C31.272 39.9265 32.2838 40.4782 33.0171 41.2153C36.6441 44.8329 40.1782 48.5432 43.7613 52.2047C44.602 53.0639 45.5161 53.8596 46.4693 54.6407C46.176 54.3185 45.8778 53.9963 45.5943 53.6692C40.8088 48.221 36.0135 42.7922 31.2622 37.3195C30.3383 36.2553 29.4927 35.0982 28.7937 33.8778C27.6743 31.9396 27.9725 29.9136 29.3949 28.4832C30.92 26.9503 33.2028 26.4962 35.0505 27.7216C36.5414 28.7078 37.8759 30.0015 39.0784 31.3391C42.9743 35.6792 46.7724 40.1023 50.6145 44.496C50.7074 44.6034 50.8345 44.6913 51.0838 44.662C50.0817 43.2902 49.0845 41.9135 48.0775 40.5416C45.6628 37.2561 43.1845 34.0145 40.843 30.6752C39.3766 28.5808 39.7432 26.3986 41.586 24.8071C43.3995 23.24 45.873 23.1814 47.6523 24.8949C49.1236 26.3156 50.419 27.9364 51.6997 29.5377C56.099 35.0397 60.4593 40.5758 64.844 46.0875C65.3474 46.7173 65.8803 47.3325 66.462 47.8939C67.4298 48.8263 68.5785 49.0314 69.825 48.4992C71.0373 47.9866 71.4234 46.9712 71.5163 45.7409C71.619 44.3691 71.6288 42.9533 71.9905 41.645C73.3738 36.5872 76.5023 33.9998 82.0503 34.1511C85.1837 34.2341 86.8408 37.0022 85.5698 39.8728C85.1886 40.7369 84.7779 41.5913 84.3184 42.4114C82.0259 46.4635 81.4589 50.7303 82.3485 55.2998C82.9546 58.4047 83.3408 61.5536 83.6634 64.7025C84.6508 74.442 80.1684 81.2572 72.0247 86.0464C69.2824 87.6575 66.3251 88.6534 63.1527 88.9365C59.0955 89.2929 55.4293 88.1896 52.2862 85.6559C48.8987 82.9268 45.5992 80.0904 42.3437 77.2101C37.8221 73.2069 33.3348 69.1695 28.9403 65.0393C27.816 63.9848 26.9753 62.5691 26.2078 61.207C24.6143 58.3803 27.1855 55.4023 30.1819 55.6757C31.6435 55.8075 32.9437 56.3006 34.0436 57.2672C36.429 59.3518 38.8047 61.456 41.1803 63.5455C41.4149 63.7554 41.6642 63.9507 41.9086 64.1508C41.9575 64.102 42.0064 64.0483 42.0553 63.9995L42.0357 63.9946ZM61.0459 87.4378C65.8558 87.3743 69.4242 85.983 72.7188 83.791C79.4401 79.3142 82.9986 73.2362 82.1041 64.9808C81.7424 61.6659 81.3513 58.3462 80.7501 55.0704C79.8898 50.3934 80.5399 46.029 82.8471 41.8842C83.3701 40.942 83.8541 39.9753 84.2598 38.9794C84.8513 37.5197 84.1131 36.1235 82.6027 35.7768C80.7159 35.3423 76.7418 36.1918 75.2069 38.3692C73.5742 40.693 73.0512 43.2511 73.0072 45.9997C72.9779 47.8109 72.1469 49.1681 70.4605 49.9101C68.7252 50.6717 67.0827 50.452 65.6358 49.2315C65.0199 48.714 64.4774 48.0989 63.9739 47.4691C60.4837 43.0949 57.0229 38.7011 53.5327 34.322C51.5775 31.8713 49.6222 29.4205 47.6034 27.0186C47.0754 26.3888 46.3862 25.8372 45.6628 25.4564C44.5532 24.8705 43.1649 25.2855 42.285 26.2863C41.3709 27.3213 41.2585 28.4246 42.0015 29.6158C42.593 30.558 43.2138 31.4807 43.8688 32.379C47.5838 37.4709 51.3282 42.5432 55.0285 47.64C55.923 48.8751 55.923 49.6026 55.2387 50.1347C54.5201 50.6912 53.8309 50.4471 52.7946 49.2706C47.5692 43.3146 42.3632 37.3391 37.0938 31.4221C36.2384 30.4604 35.1825 29.606 34.068 28.9519C32.8313 28.2244 31.3453 28.6394 30.3823 29.6744C29.5367 30.5873 29.39 31.8664 30.1428 33.1406C30.7245 34.1219 31.3795 35.0787 32.1323 35.9379C37.3675 41.9281 42.637 47.889 47.8869 53.8694C48.5517 54.6261 49.192 55.417 49.7884 56.2274C50.2821 56.906 50.2919 57.6383 49.6369 58.229C48.9769 58.8197 48.2779 58.7025 47.6229 58.1704C47.3101 57.9165 46.9923 57.6578 46.7088 57.3747C45.0713 55.7245 43.4386 54.0647 41.8109 52.3999C38.5358 49.046 35.2949 45.6628 31.9808 42.3528C31.36 41.7328 30.4948 41.2983 29.6638 40.9713C28.3097 40.444 27.0779 40.7857 26.3496 41.7035C25.4746 42.8069 25.3964 44.2324 26.2323 45.4675C26.682 46.1315 27.2099 46.7613 27.772 47.3324C29.9766 49.5635 32.2447 51.7311 34.42 53.9914C38.0421 57.7554 41.6154 61.5683 45.1984 65.3713C45.8094 66.0206 45.9267 66.7822 45.2668 67.4413C44.602 68.115 43.8639 67.949 43.1942 67.3631C42.0504 66.3623 40.9017 65.3713 39.7627 64.3705C37.5093 62.3884 35.2656 60.3966 32.9975 58.4292C31.9612 57.526 30.7441 57.0769 29.3558 57.2526C27.7085 57.4625 26.77 58.9613 27.5472 60.4112C28.2511 61.7294 29.0967 63.0524 30.1624 64.0776C33.3397 67.1435 36.6196 70.1068 39.9289 73.036C44.0448 76.6779 48.19 80.2906 52.4036 83.8202C55.1018 86.0806 58.1863 87.5403 61.041 87.4329L61.0459 87.4378Z" fill="white"/>
<path d="M66.5695 31.3001C66.3789 31.4807 66.1003 31.9298 65.9096 31.8908C65.5283 31.8175 65.0297 31.5637 64.8831 31.2464C64.2134 29.8208 63.7539 28.2879 63.0207 26.9014C60.9383 22.9812 57.9419 19.8909 54.1242 17.6061C53.87 17.4548 53.5181 17.2937 53.435 17.0594C53.3421 16.8006 53.4154 16.2538 53.5767 16.1757C53.914 16.0195 54.4664 15.9219 54.7401 16.0976C56.0453 16.9227 57.3602 17.7624 58.5382 18.7583C62.2533 21.8974 64.8391 25.8127 66.3202 30.4506C66.3935 30.6752 66.4571 30.8997 66.5744 31.3049L66.5695 31.3001Z" fill="white"/>
<path d="M27.5521 77.952C27.1219 77.7958 26.902 77.7177 26.682 77.6298C20.738 75.2669 16.3093 71.2198 13.3079 65.5958C13.1662 65.3321 12.9853 65.0343 12.9951 64.761C13.0098 64.4729 13.176 64.0238 13.3813 63.9506C13.6599 63.8529 14.0901 63.9701 14.3589 64.1458C14.5838 64.2923 14.6669 64.6487 14.8086 64.9172C17.5753 70.1116 21.6863 73.8268 27.1366 76.0578C27.3859 76.1603 27.7036 76.214 27.86 76.3947C28.0751 76.6437 28.3342 77.0537 28.2609 77.2978C28.1729 77.5908 27.7525 77.7812 27.5472 77.952H27.5521Z" fill="white"/>
<path d="M28.5688 72.8358C27.6596 72.4306 26.8775 72.1231 26.1296 71.7423C22.6737 69.975 19.9999 67.3973 18.1473 63.9799C17.8637 63.4624 17.6829 62.9108 18.2841 62.5642C18.9391 62.1834 19.3106 62.6423 19.6186 63.2037C21.6374 66.8896 24.6241 69.4868 28.5444 71.0197C28.7301 71.093 28.9941 71.1467 29.0674 71.2931C29.2239 71.5909 29.4194 71.9912 29.3314 72.2597C29.2434 72.5185 28.8181 72.6649 28.5688 72.8407V72.8358Z" fill="white"/>
<path d="M61.3245 32.1056C61.129 32.2813 60.8601 32.7109 60.645 32.6865C60.2931 32.6426 59.8287 32.3789 59.6772 32.0714C59.1004 30.8997 58.7142 29.6255 58.0934 28.4783C56.7443 25.9689 54.8232 23.9624 52.3987 22.4539C51.8659 22.1219 51.3819 21.7558 51.7877 21.0967C52.1983 20.4279 52.7604 20.7159 53.2737 21.043C57.1109 23.5035 59.7114 26.9111 61.1094 31.2414C61.1827 31.466 61.2218 31.6955 61.3245 32.1056Z" fill="white"/>
</g>
<defs>
<linearGradient id="paint0_linear_142_872" x1="53" y1="0" x2="53" y2="106" gradientUnits="userSpaceOnUse">
<stop stop-color="white"/>
<stop offset="1" stop-color="#39F0F6"/>
</linearGradient>
<clipPath id="clip0_142_872">
<rect width="73" height="73" fill="white" transform="translate(13 16)"/>
</clipPath>
</defs>
</svg>
